<svg xmlns="http://www.w3.org/2000/svg" width="50" height="64" viewBox="0 0 50 64">
<g fill="none" fill-rule="evenodd">
<g fill="#D2131C" fill-rule="nonzero">
<g>
<path d="M3.497 64C3.222 64 3 63.622 3 63.157v-5.403c.03-.43.245-.754.5-.754s.47.324.5.754v5.403c0 .226-.053.442-.148.6-.095.159-.223.246-.355.243z" transform="translate(-571.000000, -1198.000000) translate(571.000000, 1198.000000)"></path>
<path d="M.702 64C.314 64 0 63.653 0 63.225v-7.791c0-1.34.981-2.428 2.195-2.434h1.177c.358.047.628.382.628.78s-.27.734-.628.78H2.195c-.437 0-.79.391-.79.874v7.791c0 .206-.075.403-.207.548-.131.145-.31.227-.496.227zM9.503 64c-.132.003-.26-.085-.355-.244-.095-.16-.148-.378-.148-.605V57.76c.03-.433.245-.759.5-.759s.47.326.5.76v5.391c0 .469-.222.849-.497.849zM12.343 64c-.384 0-.696-.348-.696-.778v-7.79c0-.484-.351-.876-.784-.876H9.696c-.384 0-.696-.348-.696-.778 0-.43.312-.778.696-.778h1.128c1.2.006 2.17 1.091 2.176 2.432v7.79c0 .413-.288.755-.657.778zM6.5 53C4.567 53 3 51.433 3 49.5S4.567 46 6.5 46s3.5 1.567 3.5 3.5c-.006 1.93-1.57 3.494-3.5 3.5zm0-5.422c-.778-.005-1.483.46-1.784 1.179-.3.718-.14 1.546.41 2.098.549.552 1.376.719 2.096.422.72-.297 1.19-.999 1.19-1.777-.007-1.055-.857-1.91-1.912-1.922zM21.5 64c-.276 0-.5-.373-.5-.834v-5.332c0-.46.224-.834.5-.834s.5.373.5.834v5.332c.002.222-.05.436-.144.593-.095.157-.223.244-.356.24z" transform="translate(-571.000000, -1198.000000) translate(571.000000, 1198.000000)"></path>
<path d="M19.69 64c-.183 0-.359-.082-.488-.227-.13-.146-.202-.343-.202-.549v-7.799c0-1.34.965-2.425 2.155-2.425h1.156c.38 0 .689.347.689.776 0 .428-.309.775-.69.775h-1.155c-.429 0-.776.391-.776.874v7.8c0 .428-.309.775-.69.775zM27.503 64c-.132.003-.26-.085-.355-.244-.095-.16-.148-.378-.148-.605V57.76c.03-.433.245-.759.5-.759s.47.326.5.76v5.391c0 .469-.222.849-.497.849zM30.355 64c-.18.003-.353-.078-.48-.225-.127-.146-.197-.345-.194-.553v-7.775c0-.483-.34-.876-.76-.876h-1.157c-.262.036-.518-.105-.659-.362-.14-.257-.14-.584 0-.841.141-.257.397-.398.659-.363h1.13c1.164.007 2.106 1.098 2.106 2.442v7.775c0 .417-.284.76-.645.778zM24.5 52c-1.933 0-3.5-1.567-3.5-3.5s1.567-3.5 3.5-3.5 3.5 1.567 3.5 3.5-1.567 3.5-3.5 3.5zm0-5.411c-.78-.005-1.484.462-1.785 1.181-.3.72-.136 1.55.415 2.1.55.551 1.38.715 2.1.415.719-.3 1.186-1.006 1.181-1.785.003-.51-.197-1-.555-1.362-.358-.363-.846-.568-1.356-.571v.022zM39.5 64c-.276 0-.5-.374-.5-.835v-5.33c0-.461.224-.835.5-.835s.5.374.5.835v5.353c-.008.452-.23.812-.5.812z" transform="translate(-571.000000, -1198.000000) translate(571.000000, 1198.000000)"></path>
<path d="M37.702 64c-.388 0-.702-.347-.702-.775v-7.802c.005-1.336.985-2.417 2.195-2.423h1.177c.358.047.628.382.628.78s-.27.734-.628.78h-1.177c-.209-.002-.41.087-.559.25-.148.161-.232.382-.232.613v7.802c0 .206-.074.403-.206.548-.131.145-.31.227-.496.227zM46.497 64c-.273 0-.494-.368-.494-.822v-5.246c-.022-.32.067-.632.23-.803.163-.172.37-.172.534 0 .163.171.252.484.23.803v5.223c.003.224-.048.44-.142.6-.095.16-.224.248-.358.245z" transform="translate(-571.000000, -1198.000000) translate(571.000000, 1198.000000)"></path>
<path d="M49.31 64c-.184.003-.362-.078-.493-.224-.131-.146-.205-.346-.205-.554v-7.79c.002-.231-.077-.454-.222-.619-.144-.165-.34-.257-.545-.257h-1.156c-.38 0-.689-.349-.689-.778 0-.43.309-.778.69-.778h1.155C49.035 53 50 54.089 50 55.432v7.79c0 .43-.309.778-.69.778zM42.5 52c-1.417 0-2.693-.854-3.235-2.163-.54-1.31-.24-2.816.764-3.816 1.003-1 2.51-1.297 3.818-.751 1.308.545 2.157 1.825 2.153 3.241C45.994 50.44 44.429 52 42.5 52zm0-5.411c-.778-.005-1.483.46-1.784 1.179-.3.718-.14 1.546.41 2.098.549.552 1.376.719 2.096.422.72-.297 1.19-.998 1.19-1.777 0-1.057-.855-1.916-1.912-1.922zM28.541 34h-8.054c-.668 0-1.21-.568-1.21-1.269v-1.742c0-2.965-.726-3.968-2.2-5.964-.364-.496-.76-1.05-1.189-1.696-1.303-1.948-1.963-4.29-1.881-6.668.206-5.659 4.448-10.245 9.836-10.636 2.899-.206 5.747.87 7.856 2.965 2.118 2.097 3.313 5.02 3.3 8.075.01 2.255-.652 4.456-1.892 6.299-.44.657-.836 1.223-1.21 1.73-1.43 1.996-2.2 3-2.2 5.953v1.742c-.028.656-.53 1.182-1.156 1.211zm-7.702-1.638h7.35v-1.373c0-3.46.98-4.868 2.476-6.922.352-.496.748-1.038 1.177-1.672 2.187-3.28 2.147-7.653-.101-10.886-2.248-3.234-6.206-4.613-9.853-3.434-3.647 1.179-6.176 4.656-6.297 8.655-.073 2.026.491 4.02 1.607 5.676.418.623.814 1.154 1.1 1.65 1.496 2.076 2.486 3.46 2.486 6.922l.055 1.384zM29.01 40h-8.02c-1.1 0-1.99-.895-1.99-2s.89-2 1.99-2h8.02c1.1 0 1.99.895 1.99 2s-.89 2-1.99 2zm-8.02-2.448c-.247 0-.447.2-.447.448.006.245.202.442.446.448h8.022c.242-.006.435-.205.435-.448.003-.118-.042-.232-.124-.316-.082-.085-.194-.132-.311-.132h-8.022z" transform="translate(-571.000000, -1198.000000) translate(571.000000, 1198.000000)"></path>
<path d="M24.5 6c-.276 0-.5-.41-.5-.916V.916c0-.506.224-.916.5-.916s.5.41.5.916v4.168c0 .243-.053.476-.146.648-.094.171-.221.268-.354.268zM31.721 6c-.125.002-.248-.03-.354-.094-.171-.087-.296-.238-.345-.417-.049-.18-.016-.37.09-.526l1.584-2.628c.193-.32.62-.43.954-.245.335.184.45.594.256.914L32.322 5.66c-.123.207-.352.336-.6.339zM36.683 12c-.242-.003-.464-.136-.586-.351-.095-.164-.122-.36-.073-.544.048-.184.166-.34.328-.432l2.637-1.58c.21-.125.467-.124.675.002.209.125.337.356.336.605 0 .249-.13.478-.34.602l-2.637 1.571c-.102.071-.219.115-.34.127zM41.058 18h-4.142c-.506 0-.916-.224-.916-.5s.41-.5.916-.5h4.168c.506 0 .916.224.916.5s-.41.5-.916.5h-.026zM39.313 26c-.116 0-.23-.03-.331-.09l-2.645-1.6c-.209-.126-.337-.357-.337-.608 0-.25.128-.483.337-.608.208-.125.464-.125.673 0l2.645 1.591c.27.157.402.486.322.797-.081.31-.355.524-.664.518zM10.677 26c-.307.002-.577-.213-.655-.523-.078-.31.055-.636.323-.792l2.645-1.591c.209-.125.465-.125.673 0 .209.125.337.357.337.608 0 .25-.128.482-.337.608l-2.645 1.601c-.104.06-.222.09-.341.089zM13.082 18H8.918C8.411 18 8 17.776 8 17.5s.411-.5.918-.5h4.164c.507 0 .918.224.918.5s-.411.5-.918.5zM13.324 12c-.12-.004-.237-.037-.341-.099l-2.643-1.586c-.21-.125-.34-.357-.34-.608 0-.252.127-.485.336-.611.21-.127.467-.128.677-.003l2.642 1.557c.268.156.4.48.323.789-.078.309-.347.523-.654.522V12zM18.284 6c-.248-.003-.477-.132-.6-.339l-1.591-2.654c-.193-.323-.076-.733.26-.918.337-.185.766-.073.958.25l1.582 2.626c.102.156.133.345.085.523-.049.178-.172.33-.34.418-.107.062-.23.095-.354.094zM43.246 44c-.209 0-.41-.084-.557-.232-.147-.149-.23-.35-.23-.56V40.17c-.006-.878-.715-1.586-1.586-1.586h-7.086c-.435 0-.787-.355-.787-.792 0-.438.352-.793.787-.793h7.053c1.74 0 3.154 1.418 3.16 3.17v3.037c0 .425-.332.775-.754.793zM7.766 44c-.203 0-.398-.084-.542-.232-.143-.149-.224-.35-.224-.56V40.17c.006-1.749 1.375-3.165 3.066-3.171h7.168c.423 0 .766.355.766.793 0 .437-.343.792-.766.792h-7.168c-.844.006-1.527.713-1.533 1.586v3.036c0 .438-.343.793-.767.793zM24.5 45c-.276 0-.5-.36-.5-.805v-2.39c0-.445.224-.805.5-.805s.5.36.5.805v2.38c.002.214-.05.422-.144.575-.094.154-.222.24-.356.24zM25 18c-1.105 0-2-.895-2-2s.895-2 2-2 2 .895 2 2c-.003 1.103-.897 1.997-2 2zm.005-3c-.405-.002-.771.24-.927.614-.157.373-.072.804.213 1.091.286.287.716.374 1.09.22.375-.155.619-.52.619-.925 0-.55-.445-.997-.995-1z" transform="translate(-571.000000, -1198.000000) translate(571.000000, 1198.000000)"></path>
<path d="M26.17 24h-2.34c-.197 0-.386-.085-.524-.235-.138-.15-.214-.353-.211-.564v-.677c-.245-.089-.484-.196-.715-.322l-.455.489c-.291.293-.745.293-1.036 0l-1.636-1.775c-.284-.308-.284-.803 0-1.11l.456-.488c-.117-.247-.218-.503-.3-.766h-.674c-.406 0-.735-.352-.735-.787v-2.519c0-.435.33-.787.735-.787h.642c.083-.263.184-.519.3-.766l-.424-.488c-.284-.307-.284-.803 0-1.11l1.657-1.775c.295-.282.74-.282 1.035 0l.456.488c.23-.125.47-.232.714-.321v-.688c-.002-.211.074-.414.212-.564.138-.15.327-.235.524-.235h2.34c.197 0 .385.084.523.235.139.15.215.353.212.564v.677c.245.089.484.196.715.321l.455-.488c.291-.293.745-.293 1.036 0l1.656 1.775c.274.312.274.798 0 1.11l-.455.488c.117.247.217.503.3.765h.632c.406 0 .735.353.735.788v2.519c0 .435-.33.787-.735.787h-.622c-.083.263-.183.519-.3.766l.456.488c.268.314.268.796 0 1.11l-1.678 1.841c-.29.293-.744.293-1.035 0l-.456-.488c-.23.125-.47.233-.714.322v.676c-.022.422-.351.75-.746.744zm-1.605-1.587h.901v-.488c0-.366.237-.683.57-.765.47-.132.918-.346 1.325-.633.292-.191.667-.145.911.111l.321.355.621-.665-.33-.344c-.24-.262-.283-.664-.104-.977.263-.447.456-.938.57-1.453.076-.357.372-.61.714-.61h.455v-.855h-.455c-.342 0-.638-.253-.715-.61-.113-.515-.306-1.006-.57-1.453-.178-.313-.135-.715.104-.976l.331-.344-.62-.666-.322.355c-.246.253-.619.298-.911.11-.418-.282-.876-.488-1.357-.61-.332-.082-.568-.399-.57-.765v-.588h-.869v.488c0 .366-.237.683-.57.766-.48.121-.938.327-1.356.61-.292.191-.667.146-.911-.11l-.332-.356-.61.666.33.344c.24.261.283.664.104.976-.263.447-.456.938-.57 1.453-.076.357-.372.61-.714.61h-.455v.932h.455c.342.001.638.254.715.61.113.516.306 1.007.57 1.454.178.312.135.715-.104.976l-.331.344.61.666.332-.355c.244-.256.62-.302.911-.111.418.283.876.489 1.357.61.332.083.568.4.57.766v.532zM27.214 31h-4.428c-.434 0-.786-.224-.786-.5s.352-.5.786-.5h4.428c.434 0 .786.224.786.5s-.352.5-.786.5z" transform="translate(-571.000000, -1198.000000) translate(571.000000, 1198.000000)"></path>
</g>
</g>
</g>
</svg>
