<svg xmlns="http://www.w3.org/2000/svg" width="54" height="54" viewBox="0 0 54 54">
<g fill="none" fill-rule="evenodd">
<g fill="#D2131C" fill-rule="nonzero">
<g>
<path d="M27.01 36.75c-3.945.004-7.503-2.37-9.015-6.012-1.512-3.643-.68-7.838 2.108-10.629 2.787-2.79 6.982-3.626 10.626-2.117C34.374 19.5 36.75 23.056 36.75 27c-.005 5.379-4.362 9.74-9.74 9.75zm0-18.16c-3.41 0-6.483 2.053-7.788 5.203-1.305 3.15-.584 6.776 1.827 9.186 2.41 2.411 6.036 3.132 9.186 1.827 3.15-1.304 5.204-4.378 5.204-7.787 0-4.655-3.774-8.43-8.43-8.43zM5.628 11.25C2.945 11.251.634 9.357.11 6.725-.416 4.094.992 1.458 3.47.43 5.95-.598 8.81.268 10.3 2.498c1.492 2.231 1.2 5.205-.696 7.103-1.052 1.058-2.484 1.652-3.976 1.649zm0-9.949c-2.062.003-3.836 1.461-4.237 3.485-.4 2.023.684 4.048 2.59 4.835 1.907.788 4.104.12 5.249-1.596 1.144-1.716.918-4.002-.542-5.46-.811-.81-1.912-1.266-3.06-1.264z" transform="translate(-569.000000, -982.000000) translate(569.000000, 982.000000)"></path>
<path d="M13.575 25.5c-.178-.002-.356-.017-.533-.047l-6.92-1.224c-1.117-.196-2.006-1.044-2.254-2.15L1.511 9.466c-.067-.361.172-.709.533-.776.362-.067.71.172.777.533l2.347 12.583c.142.573.607 1.008 1.188 1.113l6.92 1.224c.5.086 1.012-.05 1.403-.374.493-.416.711-1.073.565-1.702-.145-.629-.631-1.123-1.257-1.28l-5.275-1.3c-.25-.062-.442-.261-.495-.513l-.936-4.768c-.058-.3.097-.601.375-.73 2.56-1.214 4.62-3.279 5.826-5.842.128-.278.429-.432.73-.374l4.769.935c.252.053.452.245.514.495l1.3 5.273c.252.864 1.128 1.387 2.008 1.2.881-.186 1.47-1.019 1.35-1.91l-1.226-6.9c-.106-.59-.556-1.058-1.14-1.187L9.226 2.82c-.362-.067-.6-.414-.533-.776.067-.361.414-.6.776-.533l12.588 2.347c1.12.239 1.982 1.134 2.179 2.262l1.225 6.918c.255 1.603-.791 3.124-2.379 3.46-1.588.337-3.161-.63-3.578-2.198L18.307 9.44l-3.853-.776c-1.284 2.48-3.307 4.503-5.788 5.787l.776 3.852 4.863 1.196c1.487.377 2.462 1.8 2.277 3.322-.185 1.522-1.473 2.67-3.007 2.68zM48.382 54c-2.684.003-4.997-1.89-5.522-4.523-.526-2.632.881-5.269 3.36-6.297 2.48-1.029 5.34-.162 6.832 2.07 1.491 2.232 1.198 5.206-.7 7.104-1.05 1.056-2.48 1.65-3.97 1.646zm0-9.932c-2.054.004-3.82 1.457-4.218 3.473-.398 2.015.683 4.031 2.581 4.816 1.899.784 4.087.119 5.228-1.59 1.14-1.708.916-3.985-.536-5.437-.81-.81-1.91-1.265-3.055-1.262z" transform="translate(-569.000000, -982.000000) translate(569.000000, 982.000000)"></path>
<path d="M44.658 52.497h-.122l-12.564-2.4c-1.135-.23-2.011-1.131-2.208-2.27l-1.226-6.912c-.255-1.601.791-3.121 2.38-3.457 1.589-.337 3.162.629 3.58 2.196l1.216 4.866 3.855.776c1.284-2.477 3.303-4.496 5.781-5.782l-.786-3.83-4.864-1.196c-1.57-.416-2.537-1.988-2.2-3.574.336-1.586 1.859-2.63 3.463-2.376l6.913 1.205c1.118.196 2.007 1.043 2.255 2.149l2.358 12.6c.067.361-.172.709-.534.776-.361.067-.709-.172-.776-.533l-2.367-12.573c-.125-.578-.58-1.029-1.16-1.149l-6.923-1.223c-.893-.12-1.727.468-1.913 1.347-.187.88.337 1.754 1.202 2.006l5.276 1.299c.25.062.443.261.496.513l.936 4.764c.058.3-.097.6-.375.729-2.568 1.21-4.635 3.273-5.847 5.838-.128.277-.43.431-.73.373l-4.771-.934c-.252-.053-.452-.245-.515-.495l-1.281-5.25c-.253-.862-1.128-1.385-2.01-1.2-.88.187-1.469 1.02-1.349 1.91l1.188 6.913c.122.588.587 1.046 1.179 1.158l12.565 2.345c.249.021.467.174.573.4.106.226.082.492-.061.696-.143.204-.385.317-.634.295zM43.524 20.25c-.272-.002-.518-.161-.631-.41-1.8-3.86-4.896-6.964-8.748-8.769-.343-.166-.49-.578-.33-.925.162-.344.57-.491.913-.332 4.165 1.93 7.515 5.275 9.457 9.442.16.347.013.76-.33.926-.104.046-.217.07-.33.068zM19.553 44.25c-.101 0-.201-.023-.292-.068-4.163-1.938-7.508-5.283-9.446-9.446-.105-.225-.081-.488.06-.69.143-.204.383-.315.63-.293.246.022.463.173.567.398 1.807 3.861 4.912 6.966 8.774 8.773.348.163.5.576.34.926-.117.243-.363.398-.633.4zM9.151 30.693c-.332 0-.615-.24-.67-.566-.308-1.972-.308-3.979 0-5.95.02-.186.117-.356.268-.467.15-.111.34-.154.525-.119l4.148.737c.505.086 1.022-.052 1.417-.378.498-.42.719-1.085.571-1.72-.147-.635-.638-1.134-1.27-1.293l-3.657-.897c-.198-.046-.362-.182-.444-.368-.085-.18-.085-.388 0-.567 1.855-4.041 5.096-7.284 9.137-9.142.182-.085.394-.085.576 0 .184.084.32.247.369.444l.897 3.655c.255.872 1.14 1.401 2.03 1.213.889-.188 1.483-1.03 1.362-1.931l-.765-4.118c-.034-.178.007-.363.113-.51.12-.138.29-.223.473-.236 1.972-.307 3.98-.307 5.952 0 .177.028.336.125.44.271.105.145.148.327.118.504-.026.176-.122.335-.266.44-.144.104-.324.147-.5.117-1.607-.255-3.241-.284-4.856-.085l.614 3.456c.258 1.62-.8 3.156-2.403 3.496-1.605.34-3.194-.636-3.616-2.22l-.699-2.834c-3.17 1.644-5.753 4.227-7.398 7.395l2.835.699c1.584.421 2.561 2.01 2.221 3.614-.34 1.603-1.877 2.66-3.497 2.402l-3.458-.614c-.199 1.614-.17 3.248.085 4.855.057.367-.191.711-.557.774l-.095-.057z" transform="translate(-569.000000, -982.000000) translate(569.000000, 982.000000)"></path>
<path d="M27.52 46.49c-.988 0-1.975-.076-2.951-.227-.237-.037-.437-.199-.524-.424-.086-.225-.047-.479.104-.667.15-.187.39-.28.627-.243 1.604.255 3.235.284 4.846.085l-.613-3.462c-.257-1.622.797-3.161 2.398-3.502 1.6-.34 3.187.638 3.607 2.225l.698 2.838c1.582-.801 3.032-1.841 4.299-3.084 1.254-1.255 2.307-2.698 3.12-4.276l-2.828-.7c-1.581-.422-2.556-2.014-2.217-3.62.34-1.606 1.874-2.664 3.49-2.406l3.45.615c.198-1.617.17-3.254-.085-4.863-.057-.368.194-.713.56-.77.368-.058.712.194.77.562.306 1.975.306 3.985 0 5.96-.028.18-.127.34-.274.445-.148.105-.331.146-.51.113l-4.138-.738c-.504-.088-1.02.05-1.414.379-.504.418-.729 1.086-.581 1.725.148.639.643 1.14 1.279 1.292l3.648.946c.197.048.36.183.447.367.086.184.085.397-.004.58-1.85 4.05-5.088 7.3-9.125 9.157-.182.088-.394.09-.578.003-.183-.086-.317-.25-.365-.448l-.943-3.661c-.254-.874-1.136-1.404-2.024-1.215-.888.188-1.48 1.031-1.36 1.934l.735 4.153c.03.178-.01.361-.113.51-.103.15-.264.25-.443.275-.99.127-1.99.175-2.988.142zM5.628 54C2.945 54.001.634 52.107.11 49.475c-.525-2.631.883-5.267 3.361-6.295 2.48-1.028 5.339-.162 6.83 2.068 1.492 2.231 1.2 5.205-.696 7.103C8.552 53.409 7.12 54.003 5.628 54zm0-9.949c-2.062.003-3.836 1.461-4.237 3.485-.4 2.023.684 4.048 2.59 4.835 1.907.788 4.104.12 5.249-1.596 1.144-1.716.918-4.002-.542-5.46-.811-.81-1.912-1.266-3.06-1.264z" transform="translate(-569.000000, -982.000000) translate(569.000000, 982.000000)"></path>
<path d="M9.367 52.5c-.347.006-.64-.257-.672-.603-.032-.345.208-.657.55-.715l12.57-2.42c.572-.142 1.008-.607 1.112-1.187l1.225-6.916c.088-.5-.05-1.012-.374-1.402-.413-.5-1.073-.722-1.705-.576-.632.147-1.127.638-1.278 1.268l-1.3 5.27c-.062.25-.262.443-.514.496l-4.77.935c-.3.058-.601-.097-.73-.374-1.21-2.566-3.277-4.63-5.844-5.841-.278-.128-.432-.429-.374-.729l.935-4.766c.053-.252.246-.452.496-.514l5.274-1.3c.864-.251 1.388-1.126 1.202-2.006-.187-.88-1.02-1.468-1.913-1.348l-6.901 1.233c-.6.116-1.073.58-1.197 1.178L2.82 44.733c-.068.362-.415.6-.777.534-.361-.068-.6-.415-.533-.776L3.86 31.94c.239-1.12 1.134-1.981 2.263-2.178l6.92-1.224c1.603-.255 3.125.79 3.462 2.377.336 1.587-.63 3.16-2.2 3.576l-4.862 1.187-.776 3.832c2.481 1.284 4.504 3.305 5.788 5.785l3.853-.776 1.198-4.86c.417-1.567 1.99-2.533 3.578-2.197 1.588.336 2.634 1.857 2.379 3.459l-1.225 6.906c-.196 1.116-1.045 2.005-2.151 2.252L9.47 52.444l-.103.056zM48.378 11.25c-2.683.001-4.994-1.893-5.519-4.525-.525-2.631.883-5.267 3.361-6.295C48.7-.598 51.56.268 53.05 2.498c1.492 2.231 1.2 5.205-.696 7.103-1.052 1.058-2.484 1.652-3.976 1.649zm0-9.949c-2.062.003-3.836 1.461-4.237 3.485-.4 2.023.684 4.048 2.59 4.835 1.907.788 4.104.12 5.249-1.596 1.144-1.716.918-4.002-.542-5.46-.811-.81-1.912-1.266-3.06-1.264z" transform="translate(-569.000000, -982.000000) translate(569.000000, 982.000000)"></path>
<path d="M40.378 25.5c-1.534-.014-2.818-1.164-3-2.685-.184-1.52.792-2.94 2.28-3.317l4.866-1.196.767-3.852c-2.468-1.292-4.478-3.313-5.756-5.787l-3.837.776L34.5 14.3c-.417 1.568-1.992 2.535-3.581 2.198-1.59-.336-2.636-1.857-2.38-3.46l1.225-6.918c.196-1.116 1.046-2.005 2.153-2.253l12.607-2.356c.362-.067.71.172.777.533.067.362-.172.709-.534.776L32.17 5.167c-.588.128-1.041.596-1.152 1.187l-1.226 6.918c-.087.5.05 1.012.375 1.402.413.5 1.074.723 1.707.577.632-.147 1.127-.638 1.278-1.269l1.339-5.272c.062-.25.262-.443.515-.496l4.773-.935c.3-.058.602.097.73.374 1.212 2.567 3.28 4.633 5.85 5.843.277.128.432.43.374.73l-.936 4.767c-.053.252-.246.452-.496.515l-5.298 1.28c-.864.252-1.389 1.128-1.202 2.008.187.88 1.02 1.468 1.914 1.348l6.926-1.224c.579-.117 1.034-.564 1.16-1.14l2.377-12.556c.068-.361.415-.6.777-.533.362.067.6.415.534.776l-2.35 12.583c-.24 1.123-1.14 1.986-2.274 2.179l-6.926 1.224c-.185.03-.373.046-.561.047z" transform="translate(-569.000000, -982.000000) translate(569.000000, 982.000000)"></path>
</g>
</g>
</g>
</svg>
