<svg xmlns="http://www.w3.org/2000/svg" width="51" height="48" viewBox="0 0 51 48">
<g fill="none" fill-rule="evenodd">
<g fill="#D2131C" fill-rule="nonzero">
<g>
<path d="M6.387 28C5.068 28 4 26.829 4 25.385v-9.578c0-1.278.464-2.503 1.29-3.406.827-.902 1.947-1.406 3.113-1.401.33 0 .597.293.597.654 0 .361-.267.654-.597.654-1.763 0-3.193 1.566-3.193 3.5v9.577c0 .722.534 1.307 1.193 1.307.66 0 1.194-.585 1.194-1.307v-7.423c0-.361.267-.654.596-.654.33 0 .597.293.597.654v7.423c-.002.696-.257 1.362-.707 1.853-.451.49-1.061.764-1.696.762zM13.427 44H9.573C9.256 44 9 43.7 9 43.33V22.67c0-.37.256-.67.573-.67.316 0 .572.3.572.67v19.99h2.71V26.528c0-.37.256-.67.572-.67.317 0 .573.3.573.67V43.33c0 .37-.256.67-.573.67zM13.01 10c-2.024.004-3.85-1.212-4.627-3.082-.777-1.869-.35-4.022 1.082-5.453C10.895.033 13.049-.394 14.918.383c1.87.776 3.086 2.603 3.082 4.628-.006 2.753-2.236 4.983-4.99 4.989zm0-8.504c-1.422-.004-2.707.85-3.254 2.162-.547 1.313-.25 2.827.755 3.834 1.005 1.007 2.517 1.31 3.832.767 1.314-.544 2.172-1.826 2.172-3.248-.006-1.935-1.57-3.504-3.504-3.515zM46.575 28c-1.34 0-2.425-1.17-2.425-2.615v-7.423c0-.361.271-.654.606-.654.335 0 .606.293.606.654v7.423c0 .722.543 1.307 1.213 1.307s1.212-.585 1.212-1.307v-9.578c-.004-1.929-1.456-3.49-3.245-3.49-.309-.04-.542-.323-.542-.659s.233-.618.542-.658C47.004 11 49 13.152 49 15.807v9.578C49 26.829 47.914 28 46.575 28zM43.427 44h-3.854c-.317 0-.573-.3-.573-.67V26.557c0-.37.256-.67.573-.67.316 0 .572.3.572.67V42.66h2.71V22.67c0-.37.256-.67.572-.67.317 0 .573.3.573.67v20.66c0 .37-.256.67-.573.67zM21.404 13h-3.808c-.33 0-.596-.448-.596-1s.267-1 .596-1h3.808c.33 0 .596.448.596 1s-.267 1-.596 1zM36.344 13h-2.679c-.367 0-.665-.448-.665-1s.298-1 .665-1h2.67c.178 0 .348.107.473.298.125.19.194.448.192.716 0 .545-.294.986-.656.986zM30.37 13h-2.74c-.348 0-.63-.448-.63-1s.282-1 .63-1h2.74c.348 0 .63.448.63 1s-.282 1-.63 1z" transform="translate(-141.000000, -1205.000000) translate(141.000000, 1205.000000)"></path>
<path d="M23.344 13h-2.679c-.367 0-.665-.448-.665-1s.298-1 .665-1h2.67c.367 0 .665.448.665 1s-.298 1-.665 1h.01zM17.427 43h-3.854c-.317 0-.573-.289-.573-.645V26.218c0-.356.256-.645.573-.645.316 0 .572.289.572.645v15.455h2.71V15.645c0-.356.256-.645.572-.645.317 0 .573.289.573.645v26.71c0 .17-.06.335-.168.456-.107.121-.253.189-.405.189zM29.2 17h-2.4c-.442 0-.8-.448-.8-1s.358-1 .8-1h2.4c.442 0 .8.448.8 1s-.358 1-.8 1zM23.362 16.986h-2.65c-.393 0-.712-.445-.712-.993s.32-.993.713-.993h2.65c.363.06.637.49.637 1s-.274.94-.638 1v-.014z" transform="translate(-141.000000, -1205.000000) translate(141.000000, 1205.000000)"></path>
<path d="M19.2 17h-2.4c-.442 0-.8-.448-.8-1s.358-1 .8-1h2.4c.442 0 .8.448.8 1s-.358 1-.8 1zM40.349 43h-4.447c-.364 0-.66-.29-.66-.646V16.292H29.66c-.364 0-.66-.29-.66-.646 0-.357.296-.646.66-.646h6.233c.175 0 .343.068.467.19.124.12.193.285.193.456v26.062h3.126V26.244c0-.357.296-.646.66-.646.365 0 .661.289.661.646v16.11c0 .353-.29.641-.651.646zM40 10c-2.023 0-3.847-1.22-4.62-3.089-.774-1.87-.344-4.021 1.088-5.45C37.9.03 40.053-.393 41.921.384 43.789 1.16 45.004 2.987 45 5.01 44.994 7.768 42.757 10 40 10zm0-8.494c-1.935 0-3.504 1.57-3.504 3.505 0 1.935 1.569 3.504 3.504 3.504s3.504-1.57 3.504-3.504c0-.93-.369-1.821-1.026-2.478-.657-.657-1.549-1.027-2.478-1.027zM50.333 45H.667C.298 45 0 44.552 0 44s.298-1 .667-1h49.666c.369 0 .667.448.667 1s-.298 1-.667 1zM48.319 48H3.681C3.305 48 3 47.552 3 47s.305-1 .681-1h44.638c.376 0 .681.448.681 1s-.305 1-.681 1z" transform="translate(-141.000000, -1205.000000) translate(141.000000, 1205.000000)"></path>
</g>
</g>
</g>
</svg>
