<svg xmlns="http://www.w3.org/2000/svg" width="52" height="54" viewBox="0 0 52 54">
<g fill="none" fill-rule="evenodd">
<g fill="#FFF" fill-rule="nonzero">
<g>
<path d="M40.003 26.755c-.551 0-1.091-.16-1.554-.46l-8.92-5.876c-.208-.137-.327-.374-.313-.622.014-.249.16-.47.381-.583.222-.112.486-.097.694.04l8.92 5.875c.326.205.72.272 1.095.186.41-.072.769-.323.977-.685.37-.666.156-1.506-.489-1.91l-12.369-7.834c-.546-.348-1.18-.532-1.827-.528h-5.833v1.459c.06.999-.437 1.949-1.292 2.466-.855.518-1.925.518-2.78 0-.854-.517-1.352-1.467-1.292-2.466V11.41c0-.703.403-1.343 1.036-1.645l5.09-2.4c.092-.043.192-.066.293-.068h13.874c.354.042.62.343.62.7 0 .358-.266.659-.62.7H22.016l-4.973 2.321c-.148.076-.241.226-.245.392v4.407c0 .713.578 1.292 1.29 1.292.712 0 1.29-.579 1.29-1.292v-2.155c0-.186.074-.364.206-.495.132-.13.311-.203.497-.2h6.488c.906-.002 1.795.256 2.56.744l12.378 7.834c.956.609 1.458 1.73 1.277 2.85-.18 1.12-1.009 2.025-2.107 2.3-.221.05-.448.069-.674.06z" transform="translate(-141.000000, -982.000000) translate(141.000000, 982.000000)"></path>
<path d="M34.91 28.703c-.6-.002-1.185-.177-1.681-.504l-6.454-4.192c-.326-.214-.41-.643-.19-.959.221-.315.665-.398.99-.184l6.444 4.193c.362.234.805.318 1.231.232.415-.09.776-.338 1-.687.474-.718.265-1.671-.47-2.14l-5.843-3.738c-.329-.208-.42-.635-.205-.953.215-.318.657-.407.986-.199l5.863 3.699c.692.412 1.182 1.079 1.358 1.847.175.769.02 1.573-.428 2.23-.447.685-1.175 1.153-2 1.287-.197.045-.399.068-.601.068z" transform="translate(-141.000000, -982.000000) translate(141.000000, 982.000000)"></path>
<path d="M30.266 31.622c-.556.001-1.102-.156-1.571-.454l-4.288-2.757c-.223-.125-.358-.363-.35-.617.008-.254.157-.483.387-.595.23-.111.504-.086.71.065l4.297 2.747c.673.432 1.568.272 2.047-.366.256-.333.361-.756.291-1.169-.07-.413-.308-.778-.66-1.01l-2.803-1.87c-.319-.216-.401-.648-.184-.964.102-.155.263-.261.446-.296.183-.034.372.006.524.112l2.803 1.87c.662.444 1.11 1.138 1.243 1.92.132.782-.065 1.583-.544 2.217-.552.737-1.423 1.17-2.348 1.167z" transform="translate(-141.000000, -982.000000) translate(141.000000, 982.000000)"></path>
<path d="M24.987 33.568c-.538 0-1.065-.152-1.523-.437l-.48-.305c-.231-.128-.373-.374-.37-.64.002-.266.148-.51.38-.633.233-.123.514-.107.73.043l.482.295c.67.417 1.543.24 2.003-.407.236-.343.326-.768.25-1.179-.072-.416-.311-.784-.66-1.016l-1.092-.711c-.333-.216-.429-.665-.216-1.001.213-.337.655-.435.987-.219l1.092.711c.669.443 1.131 1.142 1.282 1.937.151.795-.022 1.618-.48 2.281-.543.794-1.432 1.271-2.385 1.28z" transform="translate(-141.000000, -982.000000) translate(141.000000, 982.000000)"></path>
<path d="M21.036 34.054c-1.09-.007-2.075-.656-2.516-1.66-.441-1.002-.257-2.173.472-2.989l.224-.257c.985-1.111 2.664-1.247 3.813-.309l-.46.566.46-.566c.597.484.967 1.196 1.022 1.965.047.755-.211 1.496-.715 2.057l-.235.247c-.522.598-1.274.943-2.065.946zm.225-4.34c-.388-.008-.76.153-1.022.442l-.225.257c-.237.272-.355.629-.326.99.03.36.202.693.479.923.54.44 1.328.381 1.799-.134l.235-.257c.242-.27.363-.63.336-.992-.027-.363-.2-.7-.479-.931-.228-.181-.507-.286-.797-.298z" transform="translate(-141.000000, -982.000000) translate(141.000000, 982.000000)"></path>
<path d="M17.568 32.108c-1.051-.016-1.997-.659-2.423-1.648-.425-.988-.252-2.14.444-2.951l2.77-3.226c.645-.743 1.627-1.076 2.576-.873.948.203 1.72.91 2.023 1.857.303.946.093 1.987-.552 2.73l-2.8 3.195c-.52.591-1.263.925-2.038.916zm2.76-7.316c-.377-.006-.739.158-.99.448l-2.73 3.225c-.243.277-.359.648-.317 1.018.021.36.19.693.465.916.527.448 1.304.39 1.762-.133l2.8-3.195c.245-.275.364-.646.326-1.017-.02-.36-.19-.693-.465-.916-.232-.22-.535-.343-.85-.346z" transform="translate(-141.000000, -982.000000) translate(141.000000, 982.000000)"></path>
<path d="M14.782 29.188c-.624-.001-1.23-.21-1.72-.592-.579-.464-.944-1.14-1.012-1.874-.094-.739.126-1.483.607-2.055l1.012-1.173c.632-.83 1.676-1.245 2.712-1.08 1.037.166 1.896.885 2.233 1.87.337.984.097 2.073-.624 2.829l-1.012 1.132c-.553.624-1.358.97-2.196.943zm1.012-5.303c-.418-.002-.816.182-1.083.501l-.941 1.183c-.233.28-.34.642-.293 1.002.057.53.426.977.939 1.137.513.161 1.074.006 1.429-.395l1.012-1.133c.257-.285.382-.663.345-1.044-.036-.38-.231-.728-.537-.96-.249-.193-.556-.295-.87-.291z" transform="translate(-141.000000, -982.000000) translate(141.000000, 982.000000)"></path>
<path d="M12.087 26.27c-.529.005-1.043-.18-1.466-.523-.545-.437-.9-1.099-.98-1.83-.081-.73.12-1.464.554-2.028l.407-.523c.867-1.103 2.388-1.25 3.42-.328 1.031.92 1.193 2.568.362 3.703l-.387.534c-.463.631-1.167.998-1.91.995zm.387-4.391c-.325 0-.634.158-.841.43l-.407.524c-.2.248-.292.576-.255.903.05.485.364.89.796 1.027.432.136.897-.022 1.18-.401l.388-.534c.186-.251.27-.574.235-.894-.035-.32-.188-.612-.424-.809-.193-.16-.429-.246-.672-.246z" transform="translate(-141.000000, -982.000000) translate(141.000000, 982.000000)"></path>
<path d="M11.124 22.378c-.19 0-.372-.078-.502-.215l-3.688-3.826c-.235-.238-.265-.61-.069-.882l6.639-9.377c.134-.186.35-.296.58-.294h6.461c.356.042.625.343.625.701 0 .358-.269.66-.625.701h-6.107L8.34 17.788l3.295 3.404c.265.273.265.707 0 .98-.137.133-.32.207-.511.206zM44.194 20.431c-.773.024-1.505-.35-1.95-.995-1.678-2.527-5.248-8.02-7.227-11.075-.659-1.034-.43-2.41.526-3.164L41.395.639c.145-.118.33-.171.515-.147.184.025.35.124.46.277.114.148.164.337.14.524-.024.187-.12.356-.266.47l-5.852 4.558c-.388.297-.482.851-.215 1.264 1.95 3.045 5.54 8.538 7.217 11.055.277.419.83.538 1.249.269l4.769-3.055c.21-.16.488-.185.722-.067.234.119.383.361.385.628.002.266-.143.511-.376.633l-4.769 3.055c-.357.217-.765.33-1.18.328z" transform="translate(-141.000000, -982.000000) translate(141.000000, 982.000000)"></path>
<path d="M5.937 19.46c-.398-.005-.789-.111-1.137-.308L.352 16.579c-.333-.192-.45-.623-.263-.964.188-.34.61-.46.943-.268L5.48 17.88c.408.24.928.119 1.195-.278l6.673-9.655c.273-.395.206-.938-.156-1.251l-6.39-5.444c-.145-.116-.237-.288-.255-.475-.018-.187.038-.374.157-.518.116-.145.283-.237.466-.255.182-.02.364.037.505.156l6.41 5.393c.923.782 1.101 2.159.409 3.16l-6.722 9.733c-.417.62-1.1.997-1.835 1.013zM39.671 21.892c-.283-.002-.538-.175-.646-.44-.108-.264-.049-.568.15-.771l2.973-3.003c.28-.235.69-.216.948.044.257.26.276.675.043.957l-2.973 3.003c-.13.133-.309.209-.495.21z" transform="translate(-141.000000, -982.000000) translate(141.000000, 982.000000)"></path>
<path d="M4.053 16.054c-.137-.002-.271-.042-.387-.115-.315-.218-.393-.647-.174-.96l3.426-4.95c.139-.201.375-.315.621-.297.246.017.464.163.571.383.108.22.089.48-.05.682l-3.436 4.96c-.13.185-.343.296-.57.297zM45.928 16.54c-.243-.002-.468-.126-.6-.33l-3.357-5.362c-.103-.163-.137-.36-.094-.548.043-.187.16-.35.324-.45.16-.108.358-.145.546-.104.189.042.352.158.453.323l3.357 5.362c.104.163.138.36.095.548-.044.187-.16.35-.325.451-.118.078-.258.116-.4.11zM32.012 39.405H.695c-.384 0-.695-.326-.695-.73 0-.402.311-.73.695-.73h31.327c.384 0 .695.328.695.73 0 .404-.311.73-.695.73h-.01zM32.012 43.297H.695c-.384 0-.695-.326-.695-.73 0-.402.311-.73.695-.73h31.327c.384 0 .695.328.695.73 0 .404-.311.73-.695.73h-.01zM44.266 43.297c-.222 0-.43-.103-.566-.279l-4.62-5.985c-.194-.312-.121-.72.167-.947.288-.226.7-.196.953.07l4.046 5.236 5.473-7.54c.237-.31.675-.376.991-.15.153.111.254.28.282.467.028.187-.02.378-.133.53l-6.028 8.3c-.13.179-.335.286-.556.288l-.01.01zM49.823 54H32.45c-.385 0-.696-.327-.696-.73 0-.403.311-.73.696-.73h17.372c.384 0 .696.327.696.73 0 .403-.312.73-.696.73zM18.07 54H.694C.311 54 0 53.673 0 53.27c0-.403.311-.73.695-.73h17.374c.384 0 .695.327.695.73 0 .403-.311.73-.695.73zM1.175 51.568c-.223-.004-.432-.114-.563-.298-.223-.32-.154-.762.155-.994l1.727-1.281c.96-.707 2.293-.524 3.037.417.423.533 1.184.626 1.718.209l1.872-1.46c.587-.443 1.348-.562 2.037-.32.69.242 1.219.814 1.417 1.531.112.41.5.676.913.626l.756-.09c.926-.111 1.748-.658 2.222-1.48.49-.813.57-1.818.214-2.701-.092-.235-.055-.501.097-.7.152-.198.397-.299.64-.263.245.036.452.202.544.436.518 1.299.407 2.772-.301 3.974-.698 1.195-1.9 1.992-3.25 2.155l-.758.09c-1.077.117-2.079-.58-2.367-1.65-.075-.275-.279-.494-.543-.586-.267-.088-.56-.04-.786.13l-1.873 1.45c-1.124.887-2.734.688-3.62-.447-.289-.348-.79-.412-1.154-.15l-1.727 1.262c-.118.089-.26.138-.407.14zM49.338 52.003c-.145-.005-.286-.05-.407-.132l-.992-.73c-.96-.681-2.207-.775-3.254-.245l-.377.193c-.937.479-2.04.479-2.977 0l-1.369-.69c-.616-.299-1.34-.253-1.915.122-1.457.978-3.405.647-4.475-.762l-.704-.913c-.241-.314-.188-.77.12-1.016.306-.247.75-.192.991.122l.705.914c.632.792 1.742.98 2.59.436.994-.654 2.252-.727 3.313-.192l1.37.69c.547.273 1.187.273 1.736 0l.347-.142c1.51-.773 3.311-.637 4.693.355l.992.721c.26.178.374.51.28.816-.094.306-.374.51-.687.504l.02-.05z" transform="translate(-141.000000, -982.000000) translate(141.000000, 982.000000)"></path>
</g>
</g>
</g>
</svg>
