<?xml version="1.0" encoding="iso-8859-1"?>
<!-- Uploaded to: SVG Repo, www.svgrepo.com, Generator: SVG Repo Mixer Tools -->
<!DOCTYPE svg PUBLIC "-//W3C//DTD SVG 1.1//EN" "http://www.w3.org/Graphics/SVG/1.1/DTD/svg11.dtd">
<svg fill="#f3f3f3" height="40px" width="40px" version="1.1" id="Capa_1" xmlns="http://www.w3.org/2000/svg" xmlns:xlink="http://www.w3.org/1999/xlink"
	 viewBox="0 0 373.188 373.188" xml:space="preserve">
<path d="M373.009,67.259c-0.512-2.045-2.059-3.672-4.074-4.285l-33.19-10.102L325.642,19.68c-0.614-2.017-2.24-3.563-4.285-4.073
	c-2.04-0.512-4.207,0.086-5.697,1.578l-13.657,13.656c-20.174-7.775-42.048-8.427-62.045-1.765
	c-21.012,7-39.688,21.813-54.449,43.071c-12.355-17.859-27.221-30.955-44.287-38.99c-17.727-8.348-37.246-10.737-56.452-6.914
	c-42.757,8.516-76.243,45.43-83.327,91.857c-5.598,36.697,5.167,76.266,31.131,114.43c30.611,44.995,81.096,86.882,150.053,124.496
	c0.912,0.498,1.897,0.734,2.868,0.734l0.007-0.024l0.006,0.024c0.971,0,1.955-0.236,2.868-0.734
	C365.133,260.606,391.15,151.285,359.411,84.976l12.02-12.02C372.921,71.466,373.519,69.303,373.009,67.259z M332.633,64.47
	l23.241,7.072l-39.772,39.773l-23.242-7.074L332.633,64.47z M301.89,176.247c-6.331,30.84-31.726,77.275-116.391,124.182
	c-44.813-24.832-77.589-52.195-97.434-81.365c-16.499-24.252-23.38-49.131-19.899-71.945c4.259-27.919,24.195-50.078,49.608-55.139
	c24.315-4.846,47.131,7.019,62.591,32.545l0.004-0.002c0.485,0.803,1.163,1.506,2.022,2.025c0.971,0.588,2.043,0.869,3.102,0.869
	c2.03,0,4.011-1.03,5.139-2.893c10.731-17.721,25.022-28.934,41.326-32.43c13.955-2.991,28.506-0.127,41.203,8.037l1.596,5.242
	l-31.318,31.318c-4.98-3.575-10.654-6.123-16.77-7.341c-15.404-3.068-30.3,2.876-41.171,16.042
	c-10.873-13.167-25.773-19.109-41.173-16.041c-18.654,3.715-33.252,19.743-36.325,39.885c-2.497,16.371-0.226,58.857,74.624,99.686
	c0.912,0.498,1.896,0.734,2.868,0.734l0.007-0.025l0.006,0.025c0.971,0,1.955-0.236,2.868-0.734
	c74.849-40.829,77.12-83.314,74.622-99.686c-1.41-9.244-5.253-17.617-10.796-24.335l31.044-31.044l6.701,2.039
	C302.246,132.429,306.505,153.771,301.89,176.247z M251.133,171.046c2.086,13.674-0.258,49.119-65.634,85.753
	c-65.378-36.634-67.723-72.079-65.637-85.752c2.314-15.167,13.087-27.194,26.807-29.927c13.021-2.588,25.302,3.87,33.696,17.732
	l0.004-0.003c0.485,0.804,1.164,1.507,2.022,2.026c2.834,1.717,6.525,0.81,8.24-2.024c8.395-13.861,20.676-20.323,33.693-17.732
	c3.751,0.747,7.269,2.209,10.466,4.22l-30.611,30.61c-1.124-0.467-2.293-0.84-3.508-1.082c-5.514-1.097-10.843,0.346-15.173,3.923
	c-4.331-3.579-9.66-5.023-15.176-3.922c-8.135,1.62-14.487,8.531-15.809,17.198c-0.999,6.543-0.258,23.432,28.109,38.906
	c0.912,0.498,1.896,0.734,2.868,0.734l0.007-0.024l0.006,0.024c0.971,0,1.955-0.236,2.868-0.734
	c28.367-15.475,29.107-32.363,28.109-38.906c-0.465-3.045-1.562-5.865-3.126-8.323l30.317-30.317
	C247.476,158.351,250.118,164.397,251.133,171.046z M181.258,207.356c1.172,1.172,2.707,1.757,4.242,1.757
	c1.535,0,3.071-0.586,4.243-1.757l14.614-14.614c0.1,0.368,0.199,0.736,0.261,1.136c1.2,7.866-5.901,17.051-19.12,24.923
	c-13.219-7.872-20.322-17.057-19.122-24.924c0.65-4.264,3.628-6.708,6.29-7.238c2.897-0.578,5.629,0.986,7.699,4.402l0.003-0.002
	c0.485,0.803,1.163,1.506,2.022,2.025c1.204,0.729,2.562,0.98,3.857,0.816l-4.99,4.99
	C178.915,201.214,178.915,205.013,181.258,207.356z M317.073,32.74l7.074,23.243l-39.773,39.773L277.3,72.513L317.073,32.74z
	 M185.495,344.905c-65.785-36.279-113.896-76.345-143-119.125c-24.229-35.613-34.322-72.223-29.189-105.869
	c6.324-41.453,35.985-74.366,73.809-81.898c36.304-7.232,70.296,10.36,93.253,48.266c1.126,1.857,2.616,2.893,5.128,2.893
	c3.504,0,5.117-2.858,5.139-2.894c29.42-48.579,70.442-55.923,101.953-46.021l-26.317,26.316c-1.567,1.566-2.143,3.869-1.498,5.99
	l3.502,11.506c-12.438-5.156-25.819-6.498-38.831-3.707c-17.054,3.656-32.104,14.057-43.95,30.257
	c-17.938-24.385-43.581-35.685-70.061-30.409c-30.348,6.044-54.109,32.205-59.127,65.1c-3.946,25.863,3.605,53.701,21.84,80.504
	c21.35,31.381,56.502,60.562,104.48,86.734c0.912,0.498,1.896,0.734,2.868,0.734l0.007-0.025l0.006,0.025
	c0.971,0,1.955-0.236,2.868-0.734c91.013-49.646,118.359-100.211,125.273-133.888c4.234-20.62,1.924-40.514-6.454-57.514l8.86,2.696
	c0.575,0.176,1.163,0.26,1.746,0.26c1.568,0,3.102-0.615,4.244-1.757l28.3-28.3C376.71,155.529,348.774,254.856,185.495,344.905z"/>
</svg>
