<svg xmlns="http://www.w3.org/2000/svg" width="55" height="56" viewBox="0 0 55 56">
<g fill="none" fill-rule="evenodd">
<g fill="#D2131C" fill-rule="nonzero">
<g>
<path d="M10.838 30c-.207-.002-.403-.098-.532-.26L7.828 26.74c-1.027-1.248-1.49-2.863-1.278-4.463l1.82-13.68c.048-.342.34-.597.687-.598h10.93c.234.003.451.123.58.318l1.81 2.892c.738 1.152 1.128 2.49 1.123 3.857v9.563c0 1.38-1.123 2.497-2.507 2.497-1.385 0-2.507-1.118-2.507-2.497v-5.11c-.002-.385-.253-.725-.621-.842-.37-.117-.772.017-.996.332l-3.136 4.386c-.166.234-.146.55.048.762l1.017 1.118c.265.267.265.697 0 .964-.283.247-.712.225-.968-.048l-1.017-1.118c-.625-.693-.69-1.723-.155-2.488l3.137-4.386c.57-.803 1.598-1.145 2.539-.846.94.3 1.578 1.173 1.575 2.157v5.11c0 .622.507 1.127 1.132 1.127.626 0 1.133-.505 1.133-1.127v-9.612c-.001-1.1-.317-2.177-.91-3.105l-1.655-2.516h-10L7.915 22.422c-.165 1.225.185 2.464.968 3.423l2.478 3.027c.236.294.193.722-.097.964-.122.096-.27.153-.426.164z" transform="translate(-998.000000, -981.000000) translate(998.000000, 981.000000)"></path>
<path d="M19.58 10H9.378c-1.689-.006-3.119-1.169-3.365-2.735l-.508-3.296c-.047-.364.221-.698.608-.756.384-.05.74.2.796.56l.508 3.296c.148.92.998 1.597 1.99 1.587H19.58c.996.01 1.847-.672 1.99-1.597l.518-3.491c.027-.175.128-.333.28-.438.15-.105.34-.15.527-.122.185.023.353.115.466.255.112.14.16.318.131.491l-.557 3.492C22.702 8.819 21.273 9.992 19.58 10z" transform="translate(-998.000000, -981.000000) translate(998.000000, 981.000000)"></path>
<path d="M10.007 19H9.93c-.273-.057-.463-.415-.425-.803l.998-9.587c.018-.187.087-.356.194-.47.107-.113.24-.16.372-.132.133.027.252.129.332.281.08.153.113.344.093.532l-.99 9.577c-.04.346-.25.601-.497.602zM18.136 41.995c-3.05.105-5.914-1.49-7.47-4.162-1.555-2.672-1.555-5.994 0-8.666 1.556-2.671 4.42-4.267 7.47-4.162.455-.004.91.032 1.36.106.24.04.44.207.526.438.086.231.045.491-.109.683-.154.19-.396.284-.636.244-.377-.066-.759-.099-1.141-.096-3.482.004-6.43 2.613-6.917 6.12-.487 3.508 1.637 6.846 4.98 7.83 3.345.985 6.892-.684 8.321-3.914 1.43-3.23.306-7.038-2.636-8.933-.156-.097-.267-.256-.307-.438-.04-.183-.004-.374.098-.53.207-.323.63-.418.952-.213 3.135 2.028 4.578 5.919 3.54 9.548-1.038 3.63-4.307 6.126-8.022 6.126l-.01.02zM18.884 6.972H9.056c-.324-.097-.556-.509-.556-.986s.232-.89.556-.986h9.828c.351.06.616.49.616 1s-.265.94-.616 1v-.028zM22.792 2H6.208c-.39 0-.708-.448-.708-1s.317-1 .708-1h16.584c.39 0 .708.448.708 1s-.317 1-.708 1zM27.783 56H9.217c-.192 0-.376-.075-.51-.207-.135-.132-.21-.312-.207-.498v-3.6c0-.384.321-.695.717-.695h18.566c.396 0 .717.311.717.695v3.59c.005.188-.068.37-.203.505-.135.134-.32.21-.514.21zm-17.89-1.37h17.163V52.4H9.893v2.23z" transform="translate(-998.000000, -981.000000) translate(998.000000, 981.000000)"></path>
<path d="M27.783 53H9.217c-.192 0-.376-.075-.51-.207-.135-.133-.21-.313-.207-.499v-3.598c0-.384.321-.696.717-.696h18.566c.19 0 .372.073.507.204.134.13.21.307.21.492v3.598c.003.186-.072.366-.206.499-.135.132-.32.207-.51.207zm-17.84-1.392h17.164v-2.255H9.944v2.255zM49.783 56H31.217c-.192 0-.376-.075-.51-.207-.135-.132-.21-.312-.207-.498v-3.6c0-.384.321-.695.717-.695h18.566c.396 0 .717.311.717.695v3.59c.005.188-.068.37-.203.505-.135.134-.32.21-.514.21zm-17.85-1.37h17.163V52.4H31.934v2.23z" transform="translate(-998.000000, -981.000000) translate(998.000000, 981.000000)"></path>
<path d="M50.783 53H32.227c-.192.003-.377-.07-.513-.2-.137-.131-.214-.31-.214-.496v-3.608c0-.186.077-.365.214-.496.136-.13.321-.203.513-.2h18.556c.396 0 .717.312.717.696v3.598c.003.186-.072.366-.206.499-.135.132-.32.207-.51.207zm-17.84-1.392h17.164v-2.255H32.944v2.255z" transform="translate(-998.000000, -981.000000) translate(998.000000, 981.000000)"></path>
<path d="M49.783 49H31.217c-.396 0-.717-.314-.717-.702v-3.596c0-.388.32-.702.717-.702h18.566c.396 0 .717.314.717.702v3.636c-.021.372-.336.663-.717.662zm-17.85-1.364h17.164v-2.233H31.934v2.233z" transform="translate(-998.000000, -981.000000) translate(998.000000, 981.000000)"></path>
<path d="M50.782 45H32.227c-.192.003-.377-.07-.514-.199-.136-.13-.213-.307-.213-.492v-3.618c0-.185.077-.362.213-.492.137-.13.322-.202.514-.199h18.555c.396 0 .717.31.717.69v3.58c.011.19-.06.376-.195.514-.136.138-.325.216-.522.216zm-17.838-1.391h17.162V41.42H32.944v2.189z" transform="translate(-998.000000, -981.000000) translate(998.000000, 981.000000)"></path>
<path d="M49.782 42H31.217c-.396 0-.717-.312-.717-.696v-3.598c-.003-.186.072-.366.206-.499.135-.132.319-.207.51-.207h18.566c.192 0 .376.075.51.207.135.133.21.313.207.499v3.559c.011.191-.06.378-.195.517-.136.14-.325.218-.522.218zm-17.838-1.392h17.101v-2.206H31.883l.06 2.206z" transform="translate(-998.000000, -981.000000) translate(998.000000, 981.000000)"></path>
<path d="M50.783 38H32.227c-.192.003-.377-.07-.513-.2-.137-.131-.214-.31-.214-.496v-3.608c0-.186.077-.365.214-.496.136-.13.321-.203.513-.2h18.556c.396 0 .717.312.717.696v3.608c0 .384-.32.696-.717.696zm-17.84-1.402h17.164v-2.206H32.944v2.206zM27.783 49H9.217c-.396 0-.717-.314-.717-.702v-3.596c0-.388.32-.702.717-.702h18.566c.396 0 .717.314.717.702v3.636c-.021.372-.336.663-.717.662zm-17.89-1.364h17.163v-2.233H9.893v2.233z" transform="translate(-998.000000, -981.000000) translate(998.000000, 981.000000)"></path>
<path d="M26.783 45H8.217c-.396 0-.717-.32-.717-.716v-3.568c0-.396.321-.716.717-.716h18.566c.396 0 .717.32.717.716v3.568c0 .396-.321.716-.717.716zM8.934 43.569h17.172V41.43H8.934v2.138zM53.877 55.958H1.04c-.317-.109-.54-.514-.54-.979 0-.465.223-.87.54-.979h52.837c.355.06.623.49.623 1s-.268.94-.623 1v-.042z" transform="translate(-998.000000, -981.000000) translate(998.000000, 981.000000)"></path>
</g>
</g>
</g>
</svg>
